<svg xmlns="http://www.w3.org/2000/svg" width="308" height="308" viewBox="0 0 308 308">
<g>
<path d="M 237.88 286.25 C237.74,284.22 237.70,284.75 238.55,278.31 L 239.22 273.28 L 230.36 273.39 C225.49,273.45 218.57,273.37 215.00,273.21 C211.43,273.06 201.30,273.20 192.50,273.54 C178.43,274.08 175.43,274.51 167.65,277.10 C160.59,279.46 156.35,280.17 146.65,280.64 L 134.50 281.24 L 124.00 277.00 L 113.50 272.76 L 94.50 273.42 C84.05,273.78 73.78,274.34 71.68,274.66 C68.00,275.21 67.86,275.38 68.07,278.87 C68.61,288.14 66.55,288.81 65.34,279.75 C64.58,274.12 64.25,273.47 62.00,273.15 C56.86,272.44 55.69,269.00 60.59,269.00 C61.95,269.00 63.24,268.44 63.46,267.75 C63.68,267.06 64.09,256.89 64.38,245.14 C64.66,233.39 65.14,223.52 65.45,223.22 C65.75,222.92 66.00,225.33 65.99,228.58 C65.99,231.84 66.52,242.32 67.18,251.87 L 68.37 269.24 L 75.72 268.77 C79.76,268.51 83.30,268.68 83.59,269.15 C83.88,269.62 90.05,269.99 97.31,269.99 L 110.50 269.97 L 104.81 264.95 C97.71,258.70 87.01,245.09 82.66,236.79 C75.84,223.78 74.12,217.18 71.89,195.50 C71.16,188.43 70.21,183.87 69.22,182.75 C65.89,178.95 65.38,180.57 65.11,195.74 C64.81,212.65 64.00,216.47 64.00,201.00 C64.00,189.65 62.36,177.92 60.62,176.77 C58.12,175.12 57.00,176.06 57.00,179.81 C57.00,184.00 54.93,187.69 53.19,186.62 C51.29,185.44 49.95,178.96 51.14,176.73 C52.47,174.26 50.88,173.04 46.31,173.02 C44.55,173.01 42.84,172.55 42.50,172.00 C42.16,171.45 39.88,171.00 37.44,171.00 C35.00,171.00 33.00,170.55 33.00,170.00 C33.00,169.45 34.02,169.00 35.27,169.00 C36.52,169.00 40.67,168.13 44.49,167.07 C48.31,166.02 51.83,165.39 52.31,165.69 C52.80,165.99 53.03,165.40 52.83,164.37 C52.60,163.13 51.31,162.30 48.99,161.90 L 45.50 161.29 L 48.84 160.50 L 52.18 159.71 L 51.34 148.11 C50.88,141.72 50.61,114.82 50.73,88.32 C50.95,43.33 50.85,40.11 49.23,39.69 C47.60,39.26 47.60,39.23 49.25,39.12 C51.43,38.97 51.44,39.35 48.89,28.28 C46.69,18.71 46.86,15.62 49.59,16.18 C51.68,16.60 53.87,22.92 54.67,30.80 C55.27,36.86 55.40,37.09 57.90,36.80 C60.43,36.51 60.50,36.29 60.63,29.00 C60.70,24.88 60.85,19.25 60.95,16.50 L 61.15 11.50 L 63.36 19.50 C66.29,30.12 69.57,35.84 73.28,36.77 C76.34,37.54 101.37,37.65 183.05,37.25 L 233.60 37.00 L 235.79 32.50 C238.80,26.29 241.00,26.50 241.00,33.00 L 241.00 38.00 L 246.31 38.00 C249.29,38.00 252.46,38.62 253.54,39.41 C255.04,40.50 257.93,40.69 266.60,40.26 C278.44,39.68 285.36,40.50 281.40,42.02 C280.25,42.46 271.16,43.15 261.21,43.55 C245.97,44.16 243.00,44.53 242.39,45.89 C242.00,46.77 241.47,71.92 241.23,101.76 C240.89,142.67 241.07,156.38 241.96,157.46 C242.62,158.24 244.54,159.02 246.25,159.19 C250.24,159.59 250.99,161.74 247.31,162.24 L 244.50 162.63 L 248.08 164.26 C250.05,165.15 254.00,166.20 256.85,166.58 C259.71,166.95 262.25,167.60 262.51,168.02 C263.36,169.40 260.36,170.98 254.96,172.01 C244.90,173.92 242.57,176.82 240.98,189.50 C239.51,201.10 239.55,204.95 241.44,231.97 C242.30,244.33 242.73,255.92 242.39,257.72 C241.40,263.02 242.76,267.93 245.58,269.22 C248.48,270.54 248.27,272.36 245.17,272.82 C243.15,273.12 243.02,273.58 243.44,279.05 C243.83,284.26 243.63,285.15 241.72,286.48 C238.91,288.45 238.03,288.40 237.88,286.25 ZM 157.75 276.37 C163.26,274.89 158.95,274.00 146.30,274.00 C133.87,274.00 130.38,274.81 136.50,276.29 C139.48,277.00 155.16,277.06 157.75,276.37 ZM 217.50 269.91 C225.75,269.35 234.02,268.66 235.88,268.38 L 239.26 267.86 L 238.48 236.68 C238.05,219.53 237.76,204.60 237.83,203.50 C238.11,199.44 235.95,181.55 235.08,180.68 C233.29,178.89 231.18,184.61 230.53,193.00 C229.10,211.43 222.95,232.24 215.71,243.13 C209.97,251.75 196.57,264.09 189.27,267.46 C185.87,269.03 183.34,270.74 183.66,271.25 C184.00,271.80 188.02,271.93 193.37,271.56 C198.39,271.22 209.25,270.48 217.50,269.91 ZM 164.50 252.02 C167.25,251.55 171.75,250.49 174.50,249.64 L 179.50 248.10 L 170.50 248.71 C165.55,249.04 158.80,250.10 155.50,251.08 L 149.50 252.85 L 154.50 252.85 C157.25,252.85 161.75,252.48 164.50,252.02 ZM 152.29 248.51 C154.68,247.50 154.29,246.83 149.01,242.82 C141.47,237.10 135.54,228.85 133.13,220.72 C131.96,216.75 131.00,212.49 131.00,211.26 C131.00,210.03 130.10,208.45 129.00,207.77 C126.69,206.32 126.39,204.45 128.36,203.69 C129.19,203.38 130.00,200.76 130.42,197.05 C130.90,192.74 132.14,189.17 134.57,185.01 C136.48,181.75 138.46,178.83 138.97,178.52 C139.49,178.20 140.86,176.60 142.02,174.97 L 144.14 172.00 L 127.94 172.00 L 111.74 172.00 L 108.49 175.44 C103.50,180.73 97.37,190.41 94.97,196.76 C91.77,205.27 91.88,216.91 95.24,224.10 C98.42,230.91 106.96,240.43 112.36,243.19 C123.00,248.61 128.93,249.99 140.00,249.62 C145.77,249.42 151.31,248.92 152.29,248.51 ZM 181.81 243.50 C189.49,241.07 195.84,237.10 198.80,232.87 C201.62,228.85 206.12,215.49 206.68,209.49 C207.00,206.14 206.73,200.95 206.10,197.95 C204.55,190.63 199.47,180.34 195.13,175.75 L 191.59 172.00 L 179.21 172.00 L 166.83 172.00 L 170.51 177.02 C174.20,182.03 177.98,192.20 177.99,197.12 C178.00,198.55 178.82,200.80 179.83,202.12 C182.79,205.97 183.21,208.11 181.41,210.10 C180.30,211.33 179.98,212.77 180.42,214.53 C180.78,215.97 180.57,220.81 179.96,225.29 C178.93,232.79 178.46,233.92 173.91,239.71 C169.18,245.73 169.07,246.00 171.43,246.00 C172.79,246.00 177.46,244.87 181.81,243.50 ZM 162.80 242.59 C165.75,241.05 169.77,236.93 172.16,233.00 C180.88,218.64 177.28,189.64 165.04,175.70 C162.01,172.25 161.42,172.00 156.15,172.02 C148.13,172.05 143.09,174.62 139.22,180.66 C133.75,189.18 132.80,193.20 133.59,204.50 C134.84,222.42 139.24,231.34 150.58,238.93 C154.75,241.72 158.60,244.00 159.13,244.00 C159.66,244.00 161.31,243.37 162.80,242.59 ZM 210.07 222.86 C215.46,212.30 218.70,198.96 219.03,186.00 C219.38,171.92 219.45,172.00 205.72,172.00 L 195.58 172.00 L 200.07 176.75 C207.45,184.54 207.92,185.33 210.59,194.31 L 213.14 202.94 L 211.46 211.22 C210.53,215.77 208.70,221.34 207.39,223.59 C206.07,225.84 205.00,228.03 205.00,228.46 C205.00,230.06 208.21,226.52 210.07,222.86 ZM 91.33 194.86 C93.71,185.93 100.70,174.00 103.55,174.00 C104.35,174.00 105.00,173.55 105.00,173.00 C105.00,172.40 101.19,172.00 95.57,172.00 C83.32,172.00 83.00,172.31 83.00,183.89 C83.00,193.54 84.23,201.88 86.77,209.50 L 88.44 214.50 L 89.13 207.50 C89.51,203.65 90.50,197.96 91.33,194.86 ZM 70.00 176.43 C70.00,173.97 68.07,171.00 66.46,171.00 C64.38,171.00 64.61,175.67 66.75,176.92 C69.21,178.35 70.00,178.24 70.00,176.43 ZM 236.79 174.27 C238.28,173.32 239.86,171.97 240.30,171.27 C240.74,170.57 242.31,169.99 243.80,169.98 C246.42,169.97 249.92,168.46 248.97,167.76 C248.71,167.56 247.21,166.85 245.63,166.17 C243.22,165.13 242.35,165.19 240.30,166.54 C238.87,167.47 238.07,168.75 238.39,169.57 C238.76,170.55 238.22,171.00 236.67,171.00 C234.15,171.00 232.00,172.71 232.00,174.70 C232.00,176.47 233.55,176.33 236.79,174.27 ZM 60.75 170.48 C60.75,169.10 60.41,167.75 59.99,167.49 C58.76,166.74 56.72,169.83 57.36,171.49 C58.31,173.98 60.75,173.25 60.75,170.48 ZM 112.00 167.00 L 114.50 165.04 L 103.68 165.02 C93.39,165.00 89.00,165.90 89.00,168.04 C89.00,168.59 93.32,168.99 99.25,168.98 C107.88,168.96 109.89,168.65 112.00,167.00 ZM 149.89 168.09 C150.99,167.39 150.82,166.97 149.06,166.03 C147.57,165.24 142.32,164.96 132.96,165.18 C121.34,165.45 118.78,165.79 117.32,167.25 C115.65,168.92 116.36,169.00 132.04,168.98 C141.09,168.98 149.12,168.57 149.89,168.09 ZM 184.15 167.75 C183.34,166.95 179.88,166.50 174.50,166.50 C169.11,166.50 165.65,166.95 164.85,167.75 C163.85,168.75 165.78,169.00 174.50,169.00 C183.22,169.00 185.15,168.75 184.15,167.75 ZM 213.00 168.04 C213.00,166.01 209.13,165.19 198.50,164.99 C183.06,164.69 182.81,164.73 187.00,166.94 C189.75,168.39 192.90,168.81 201.75,168.89 C208.38,168.96 213.00,168.60 213.00,168.04 ZM 60.38 156.75 C61.59,154.83 61.67,146.80 60.95,102.50 C60.01,45.15 59.75,41.00 57.01,41.00 C55.38,41.00 55.14,42.55 54.49,57.47 C53.60,77.63 54.27,156.02 55.34,157.75 C56.54,159.68 58.81,159.23 60.38,156.75 ZM 169.81 115.64 C173.57,114.32 178.42,112.12 180.58,110.76 C185.88,107.40 194.00,98.54 194.00,96.12 C194.00,93.30 182.71,83.54 175.04,79.73 C168.85,76.65 168.08,76.52 156.54,76.51 C143.13,76.50 138.95,77.71 127.84,84.82 C120.28,89.65 118.55,92.61 120.05,98.18 C121.80,104.69 134.33,114.99 143.72,117.64 C150.19,119.47 161.27,118.62 169.81,115.64 ZM 122.47 107.95 C121.06,105.72 119.42,102.69 118.81,101.20 L 117.71 98.50 L 116.73 101.69 C115.46,105.81 116.18,107.53 120.22,109.99 C124.94,112.87 125.35,112.51 122.47,107.95 ZM 112.70 99.25 C113.05,98.29 114.16,96.43 115.17,95.12 C117.04,92.68 117.71,87.00 116.13,87.00 C115.65,87.00 113.39,89.03 111.11,91.50 C107.06,95.89 107.00,96.06 108.59,98.50 C110.52,101.44 111.82,101.67 112.70,99.25 ZM 128.00 81.12 L 131.50 77.92 L 127.58 79.48 C121.09,82.06 119.02,84.13 119.06,88.00 L 119.08 90.50 L 121.79 87.41 C123.28,85.71 126.07,82.88 128.00,81.12 ZM 145.19 108.03 C138.35,103.75 137.28,93.46 143.16,88.52 C149.55,83.14 158.48,86.09 162.45,94.88 C164.19,98.76 164.19,98.99 162.38,102.09 C158.28,109.09 150.94,111.62 145.19,108.03 Z" fill="rgba(0,0,0,1)"/>
</g>
</svg>